<svg xmlns="http://www.w3.org/2000/svg" viewBox="0 0 800 500" role="img" aria-labelledby="title">
  <title id="title">Pacote de fraldas para bebê</title>
  <defs>
    <linearGradient id="bg" x1="0" y1="0" x2="1" y2="1"><stop stop-color="#eef7f2"/><stop offset="1" stop-color="#fff2f3"/></linearGradient>
    <filter id="s"><feDropShadow dy="15" stdDeviation="13" flood-color="#4f6c5d" flood-opacity=".14"/></filter>
  </defs>
  <rect width="800" height="500" fill="url(#bg)"/>
  <circle cx="670" cy="100" r="56" fill="#fff" opacity=".55"/>
  <g filter="url(#s)">
    <rect x="220" y="105" width="360" height="300" rx="38" fill="#91bda5"/>
    <path d="M220 175h360v178c-45 20-91 22-137 2-28-12-58-12-86 0-45 20-91 18-137-2Z" fill="#f7fbf8"/>
    <path d="M305 210c8 72 37 108 95 108s87-36 95-108c-28 18-56 27-95 27s-67-9-95-27Z" fill="#fff" stroke="#dcebe2" stroke-width="8"/>
    <circle cx="400" cy="145" r="25" fill="#fff3d9"/>
    <path d="M390 145c9-16 21-16 30 0-9 16-21 16-30 0Z" fill="#e9a2ae"/>
  </g>
  <path d="M130 160c28-25 55-25 83 0" fill="none" stroke="#efb1bb" stroke-width="9" stroke-linecap="round"/>
  <path d="M610 365c27-24 54-24 81 0" fill="none" stroke="#8eb59f" stroke-width="9" stroke-linecap="round"/>
</svg>
