<svg xmlns="http://www.w3.org/2000/svg" viewBox="0 0 800 500" role="img" aria-labelledby="title">
  <title id="title">Presente embrulhado em cores suaves</title>
  <defs>
    <linearGradient id="bg" x1="0" y1="0" x2="1" y2="1">
      <stop stop-color="#fff1f2"/>
      <stop offset="1" stop-color="#f1f7f3"/>
    </linearGradient>
    <filter id="shadow" x="-20%" y="-20%" width="140%" height="150%">
      <feDropShadow dx="0" dy="16" stdDeviation="14" flood-color="#76555d" flood-opacity=".15"/>
    </filter>
  </defs>
  <rect width="800" height="500" fill="url(#bg)"/>
  <circle cx="130" cy="110" r="45" fill="#fff" opacity=".55"/>
  <circle cx="695" cy="390" r="70" fill="#fff" opacity=".4"/>
  <g filter="url(#shadow)">
    <rect x="250" y="205" width="300" height="200" rx="24" fill="#f4aebb"/>
    <rect x="225" y="165" width="350" height="72" rx="20" fill="#f8c4cc"/>
    <rect x="370" y="165" width="60" height="240" fill="#fff1d5"/>
    <path d="M400 168c-70-12-106-45-93-78 15-38 79-4 93 78Z" fill="#fff1d5"/>
    <path d="M400 168c70-12 106-45 93-78-15-38-79-4-93 78Z" fill="#fff1d5"/>
    <circle cx="400" cy="171" r="28" fill="#f7deb0"/>
  </g>
  <path d="M150 372c40-35 78-35 118 0" fill="none" stroke="#91b49f" stroke-width="10" stroke-linecap="round" opacity=".65"/>
  <path d="M620 125c18-15 35-15 53 0" fill="none" stroke="#e68e9c" stroke-width="8" stroke-linecap="round" opacity=".6"/>
</svg>
